<?xml version="1.0" encoding="UTF-8" standalone="no"?>
<!-- Generator: Adobe Illustrator 16.0.4, SVG Export Plug-In . SVG Version: 6.00 Build 0)  -->

<svg
   xmlns:osb="http://www.openswatchbook.org/uri/2009/osb"
   xmlns:dc="http://purl.org/dc/elements/1.1/"
   xmlns:cc="http://creativecommons.org/ns#"
   xmlns:rdf="http://www.w3.org/1999/02/22-rdf-syntax-ns#"
   xmlns:svg="http://www.w3.org/2000/svg"
   xmlns="http://www.w3.org/2000/svg"
   xmlns:xlink="http://www.w3.org/1999/xlink"
   xmlns:sodipodi="http://sodipodi.sourceforge.net/DTD/sodipodi-0.dtd"
   xmlns:inkscape="http://www.inkscape.org/namespaces/inkscape"
   version="1.1"
   id="Capa_1"
   x="0px"
   y="0px"
   width="400"
   height="200"
   viewBox="0 0 400 200"
   enable-background="new 0 0 64 64"
   xml:space="preserve"
   inkscape:version="0.48.4 r9939"
   sodipodi:docname="shooting.svg"><metadata
     id="metadata13"><rdf:RDF><cc:Work
         rdf:about=""><dc:format>image/svg+xml</dc:format><dc:type
           rdf:resource="http://purl.org/dc/dcmitype/StillImage" /></cc:Work></rdf:RDF></metadata><defs
     id="defs11"><linearGradient
       id="linearGradient5349"
       osb:paint="solid"><stop
         style="stop-color:#000000;stop-opacity:1;"
         offset="0"
         id="stop5351" /></linearGradient><linearGradient
       id="linearGradient5335"
       osb:paint="solid"><stop
         style="stop-color:#ffcc00;stop-opacity:1;"
         offset="0"
         id="stop5337" /></linearGradient><linearGradient
       id="linearGradient5232"
       osb:paint="solid"><stop
         style="stop-color:#f79119;stop-opacity:0.86697251;"
         offset="0"
         id="stop5234" /></linearGradient><linearGradient
       id="linearGradient5226"
       osb:paint="solid"><stop
         style="stop-color:#f7b80d;stop-opacity:1;"
         offset="0"
         id="stop5228" /></linearGradient><linearGradient
       id="linearGradient3776"
       osb:paint="solid"><stop
         style="stop-color:#f7b807;stop-opacity:0;"
         offset="0"
         id="stop3778" /></linearGradient><linearGradient
       inkscape:collect="always"
       xlink:href="#linearGradient5226"
       id="linearGradient5276"
       gradientUnits="userSpaceOnUse"
       gradientTransform="matrix(5.3900073,0,0,5.3900073,33.99299,-70.27023)"
       x1="8.6599731"
       y1="22.65494"
       x2="23.461916"
       y2="22.65494" /><linearGradient
       inkscape:collect="always"
       xlink:href="#linearGradient5226"
       id="linearGradient5313"
       gradientUnits="userSpaceOnUse"
       gradientTransform="matrix(4.3402516,0.00273759,-0.00273759,4.3402516,75.418689,-37.372035)"
       x1="8.6599731"
       y1="22.65494"
       x2="23.461916"
       y2="22.65494" /></defs><sodipodi:namedview
     pagecolor="#ffffff"
     bordercolor="#666666"
     borderopacity="1"
     objecttolerance="10"
     gridtolerance="10"
     guidetolerance="10"
     inkscape:pageopacity="0"
     inkscape:pageshadow="2"
     inkscape:window-width="1480"
     inkscape:window-height="857"
     id="namedview9"
     showgrid="false"
     inkscape:zoom="2.1179849"
     inkscape:cx="186.10124"
     inkscape:cy="88.342463"
     inkscape:window-x="138"
     inkscape:window-y="70"
     inkscape:window-maximized="0"
     inkscape:current-layer="Capa_1" /><path
     d="M 300.79777,96.236299 C 291.91651,89.880645 281.74119,85.038404 271.78037,80.685705 249.65152,71.01299 225.70339,64.149139 201.50668,62.964222 c -14.73974,-0.717452 -30.30923,0.05857 -44.71016,3.609583 -1.16204,0.287893 -1.06753,2.195278 0.20155,2.144386 38.24401,-1.480861 79.05685,5.506821 110.00203,29.460056 4.92729,3.813503 10.02159,8.143033 13.70326,13.238693 0.3731,0.52293 1.09325,0.38219 1.53585,0.0713 6.23943,-4.50971 12.4775,-9.02545 18.72061,-13.53286 1.13178,-0.825366 -0.34808,-2.416481 -1.46091,-1.604816 -6.23942,4.509706 -12.48117,9.023106 -18.72059,13.532856 0.51704,0.0177 1.02113,0.0493 1.53817,0.0678 -3.02788,-4.17997 -7.07691,-7.78298 -11.00266,-11.077192 -10.56178,-8.848427 -22.75527,-15.575438 -35.53278,-20.612896 -24.89832,-9.814391 -52.10299,-12.738999 -78.6877,-11.710157 0.0671,0.714795 0.13439,1.429591 0.20156,2.144343 11.7715,-2.906448 24.27123,-3.746692 36.3453,-3.741811 24.68969,-0.0018 48.8874,6.197554 71.6925,15.368136 11.80346,4.751082 23.92579,10.314252 34.32595,17.751849 1.12948,0.820761 2.28053,-1.018955 1.13908,-1.836994 z"
     id="path3"
     inkscape:connector-curvature="0"
     style="fill:#f7b50d;fill-opacity:1" /><path
     d="m 311.7446,150.15123 c -7.12553,-10.92336 -16.46947,-20.73037 -25.93292,-29.61645 -9.20422,-8.64834 -19.24378,-16.57619 -29.98104,-23.230718 -8.88328,-5.504483 -18.47441,-9.826394 -28.22743,-13.502186 -15.43596,-5.811222 -31.49713,-9.934698 -47.68969,-12.966639 -5.16787,-0.963801 -10.36392,-1.808133 -15.58012,-2.48694 -1.45336,-0.188416 -2.90129,-0.359467 -4.35713,-0.510862 -0.80515,-0.08905 -1.62132,-0.278364 -2.27877,0.38311 -0.66115,0.663901 -0.48357,1.982843 0.40154,2.374588 0.29657,0.133 0.51585,0.16569 0.83267,0.199743 2.23234,0.2679 4.47293,0.541273 6.69889,0.889854 5.21418,0.807625 10.36789,1.938386 15.45925,3.306694 9.75084,2.615815 19.19106,6.280906 28.27394,10.67207 15.44674,7.462914 29.77379,17.159046 42.84775,28.237066 7.4966,6.35669 14.66236,13.19341 21.13468,20.61703 0.46343,0.53506 0.93144,1.07745 1.38467,1.62899 -0.40707,-0.49335 -0.15419,-0.17501 -0.0526,0.0216 0.42531,0.80352 0.85062,1.60703 1.27366,2.40686 2.91104,5.51765 5.82945,11.03066 8.74276,16.552 0.21836,0.41116 0.43532,0.82792 0.65737,1.23664 0.33229,0.63654 1.0824,0.7851 1.71792,0.65755 7.9396,-1.53552 15.88288,-3.07334 23.82987,-4.61345 1.92677,-0.37466 1.04757,-3.29082 -0.85617,-2.9201 -7.93732,1.53921 -15.88061,3.07703 -23.82759,4.61715 0.57082,0.21346 1.14849,0.43809 1.71791,0.65755 -2.45887,-4.65414 -4.91404,-9.31056 -7.37291,-13.96474 -1.29964,-2.45714 -4.72973,-7.25949 -6.53058,-9.39659 -5.41624,-6.43346 -9.13552,-10.31491 -15.39541,-15.92573 -27.0074,-24.206654 -60.42906,-42.784488 -96.778,-47.377529 -0.79635,-0.09946 -1.58727,-0.181989 -2.37906,-0.274502 -0.24829,-0.03054 -0.51954,-0.163521 0.0548,0.08858 0.13552,0.788752 0.26228,1.588047 0.40154,2.374546 l 0,0 c -0.35965,0.16123 -0.72071,0.328102 -1.08035,0.489289 2.27307,-0.252037 5.57577,0.624911 8.15635,0.994072 6.95873,1.004774 13.87705,2.274365 20.75625,3.736551 19.55522,4.162659 39.00241,9.999458 56.89458,19.032568 17.49881,8.842579 33.06397,21.630929 46.6507,35.667889 6.43975,6.65286 12.78889,13.76993 17.87096,21.55295 1.04972,1.63195 3.63851,0.0413 2.56173,-1.60919 z"
     id="path5"
     inkscape:connector-curvature="0"
     sodipodi:nodetypes="cccccccccccccccccccccccccccsccccccccccccc"
     style="fill:#f79119;fill-opacity:1" /><path
     d="m 144.6913,32.195095 c 1.87896,7.470762 3.74924,14.937178 5.62386,22.407936 0.22079,0.885551 1.02343,1.376505 1.8871,1.437814 7.68626,0.521338 15.36818,1.047013 23.0501,1.572689 -0.32476,-1.211135 -0.65385,-2.430954 -0.98295,-3.642092 -6.52598,4.093083 -13.04762,8.186169 -19.57794,12.279249 -0.7555,0.468271 -1.11195,1.336096 -0.89982,2.204281 1.88329,7.475104 3.75358,14.93718 5.63253,22.40794 1.0898,-0.632989 2.17526,-1.261641 3.26507,-1.898971 -5.90831,-4.938595 -11.82097,-9.872852 -17.72493,-14.820124 -0.66371,-0.551631 -1.575,-0.803941 -2.36525,-0.300969 -6.52163,4.084404 -13.05196,8.186165 -19.5736,12.27057 0.95439,0.738445 1.90445,1.472548 2.86318,2.206655 2.87775,-7.142242 5.74682,-14.28883 8.62024,-21.426734 0.23474,-0.585786 -0.0251,-1.501744 -0.50227,-1.901348 -5.90397,-4.942932 -11.81662,-9.881529 -17.72059,-14.824461 -0.46077,1.110814 -0.92154,2.225968 -1.37796,3.336785 7.68191,0.525676 15.35949,1.051349 23.04574,1.577027 0.92877,0.06569 1.5716,-0.658727 1.88892,-1.435432 2.86907,-7.142247 5.74249,-14.293173 8.61591,-21.439758 0.93896,-2.334463 -2.83641,-3.348124 -3.76669,-1.035356 -2.87341,7.146585 -5.74249,14.293173 -8.62025,21.439755 0.63398,-0.477028 1.26362,-0.958399 1.88892,-1.435433 -7.68626,-0.525678 -15.36383,-1.051351 -23.04575,-1.577027 -1.64489,-0.109543 -2.67502,2.255245 -1.38231,3.336783 5.90397,4.942933 11.82096,9.881533 17.72059,14.824462 -0.16887,-0.633784 -0.33341,-1.263224 -0.50227,-1.901348 -2.86907,7.142248 -5.74683,14.28883 -8.6159,21.431077 -0.65206,1.627184 1.51282,3.052152 2.86317,2.206655 6.52164,-4.088746 13.05196,-8.181826 19.5736,-12.270571 -0.78986,-0.100324 -1.57104,-0.204983 -2.36524,-0.30531 5.90831,4.938595 11.82096,9.872852 17.72493,14.820125 1.45756,1.21185 3.77162,0.102205 3.26507,-1.898972 -1.87896,-7.475101 -3.74924,-14.937177 -5.62386,-22.407935 -0.29993,0.728973 -0.60422,1.466624 -0.89983,2.204281 6.52165,-4.093085 13.0433,-8.190511 19.57362,-12.283592 1.70205,-1.066628 0.93971,-3.510672 -0.98728,-3.642095 -7.68626,-0.521338 -15.36818,-1.047014 -23.05009,-1.57269 0.62903,0.477825 1.24938,0.959985 1.88276,1.437811 -1.87462,-7.470758 -3.74924,-14.937176 -5.62386,-22.407934 -0.62345,-2.452636 -4.39145,-1.413353 -3.77667,1.026257 z"
     id="path7"
     inkscape:connector-curvature="0"
     style="fill:url(#linearGradient5313);fill-opacity:1" /><path
     d="m 270.88625,161.70586 c -4.86068,-9.77979 -11.57421,-18.83037 -18.32803,-27.348 -15.00293,-18.9251 -32.9304,-36.223424 -53.74204,-48.623371 -12.67973,-7.549796 -26.79291,-14.170162 -41.1764,-17.79141 -1.16126,-0.291095 -1.97278,1.437724 -0.8282,1.988225 34.46739,16.637185 67.22965,41.958136 83.31739,77.630886 2.56182,5.67962 5.02898,11.8933 5.8892,18.12072 0.0841,0.63685 0.78612,0.85044 1.32283,0.78359 7.62598,-1.05477 15.25358,-2.1155 22.88171,-3.16649 1.38674,-0.19791 0.8266,-2.29721 -0.53707,-2.10267 -7.62598,1.05477 -15.25572,2.11172 -22.88171,3.16649 0.44795,0.25897 0.87865,0.5226 1.3266,0.78148 -0.71253,-5.11196 -2.59755,-10.19364 -4.5186,-14.94474 -5.17502,-12.76968 -12.78639,-24.43162 -21.70628,-34.8756 C 204.52356,94.975233 181.87192,79.627612 157.91273,68.062 c -0.27616,0.662713 -0.55213,1.325513 -0.8282,1.988225 11.75894,2.956837 23.19148,8.079947 33.85158,13.74966 21.80421,11.582613 40.26349,28.411945 56.09921,47.210945 8.19408,9.73401 16.28871,20.3348 21.98302,31.78278 0.61231,1.2548 2.49201,0.17041 1.86787,-1.08775 z"
     id="path3-6"
     inkscape:connector-curvature="0"
     style="fill:#f7bf33;fill-opacity:1" /><flowRoot
     xml:space="preserve"
     id="flowRoot5289"
     style="font-size:11px;font-style:normal;font-weight:normal;line-height:125%;letter-spacing:0px;word-spacing:0px;fill:#000000;fill-opacity:1;stroke:none;font-family:Sans"
     transform="translate(33.050283,117.56458)"><flowRegion
       id="flowRegion5291"><rect
         id="rect5293"
         width="174.69435"
         height="40.604626"
         x="12.27582"
         y="6.4197712"
         style="font-size:11px" /></flowRegion><flowPara
       id="flowPara5295"
       style="font-size:30px;font-style:normal;font-variant:normal;font-weight:normal;font-stretch:normal;font-family:Sans;-inkscape-font-specification:Sans" /></flowRoot><flowRoot
     xml:space="preserve"
     id="flowRoot5299"
     style="font-size:40px;font-style:normal;font-weight:normal;line-height:125%;letter-spacing:0px;word-spacing:0px;fill:#000000;fill-opacity:1;stroke:none;font-family:Sans"
     transform="translate(38.631131,16.997288)"><flowRegion
       id="flowRegion5301"><rect
         id="rect5303"
         width="174.69437"
         height="71.294182"
         x="14.164407"
         y="83.379715" /></flowRegion><flowPara
       id="flowPara5305"
       style="font-size:24px;font-style:normal;font-weight:bold;text-align:start;line-height:124.00000095%;text-anchor:start;fill:#006280;fill-opacity:1;-inkscape-font-specification:Sans Bold">Pathways</flowPara><flowPara
       style="font-size:24px;font-style:normal;font-weight:bold;text-align:start;line-height:124.00000095%;text-anchor:start;fill:#006280;fill-opacity:1;-inkscape-font-specification:Sans Bold"
       id="flowPara5307">To Potential</flowPara></flowRoot></svg>